<svg width="41" height="41" viewBox="0 0 41 41" fill="none" xmlns="http://www.w3.org/2000/svg">
<path d="M40.9814 0.981445H0.981445V40.9814H40.9814V0.981445Z" fill="#4E5CA8"/>
<path fill-rule="evenodd" clip-rule="evenodd" d="M26.0185 40.9814C25.9691 40.9814 25.8456 40.9814 25.7963 40.9814C25.8216 40.4333 25.908 39.8718 26.0185 39.3333C26.512 37.1491 27.191 35.0071 28.0555 32.9444C28.4931 32.044 28.987 31.1798 29.537 30.3518C30.3233 29.2444 31.1567 28.158 32 27.0926C32.6124 26.2632 33.0939 25.3929 33.5185 24.4444C34.1308 22.681 34.2667 20.9341 33.9259 19.0926C33.7099 17.4799 33.0926 16.0663 32.074 14.8148C31.3683 14.0642 30.5782 13.4346 29.6666 12.9629C27.2159 11.61 24.6664 11.1841 21.9074 11.6481C20.0081 12.1004 18.4463 13.0263 17.2222 14.537C16.8335 15.0674 16.4631 15.6106 16.1111 16.1666C15.6848 16.7349 15.1354 17.1361 14.4629 17.3703C13.5017 17.6866 12.5387 17.9953 11.574 18.2963C10.9806 18.4819 10.462 18.7473 9.9444 19.0926C10.1214 19.22 10.2573 19.3991 10.3518 19.5926C10.5189 19.9039 10.5436 20.2187 10.5 20.574C10.4444 20.7407 10.3243 20.9306 10.1851 20.9074C10.046 20.8842 9.90607 20.3791 9.75922 20.1111C9.58888 19.8756 9.39751 19.8015 9.11107 19.8518C8.7084 20.3615 8.4183 20.8985 8.27774 21.537C8.22633 21.7146 8.31892 21.8442 8.33329 22.037C8.37073 22.068 8.48144 22.1156 8.55551 22.1296C9.28636 22.2679 9.81107 22.4222 10.537 22.5926C12.4116 23.4041 14.3375 23.5399 16.3148 23C17.1874 22.7502 18.0393 22.386 18.8703 22.0185C20.162 21.3295 21.3286 20.6875 22.6296 20.0185C22.1886 19.2794 22.0343 18.477 22.0555 17.6111C22.1472 15.7729 23.0916 14.452 24.7777 13.7222C25.1989 13.5768 25.668 13.5027 26.1111 13.4629C26.3526 13.451 26.6057 13.4448 26.8333 13.4814C26.8148 13.5555 26.7407 13.5574 26.4629 13.6481C24.9686 14.1362 23.9007 15.0992 23.2592 16.537C22.6435 18.4274 23.1559 19.9274 24.7963 21.037C26.2181 21.7006 27.5206 21.534 28.8148 20.6481C30.3006 19.4005 30.7512 17.9807 30.1666 16.1296C29.4698 14.7524 28.4444 13.8889 26.8333 13.6481C28.4074 13.4259 29.6908 14.1448 30.5555 15.5C30.634 15.6445 30.7019 15.7926 30.7592 15.9444C30.8817 16.2623 30.999 16.4906 31.074 16.8148C31.1214 17.2964 31.177 17.4631 31.1296 17.9444C31.1388 18.091 31.04 18.6527 30.9814 18.7777C30.9629 18.9444 30.8467 19.0402 30.8333 19.2037C29.8155 21.4416 28.0747 22.4292 25.6111 22.1296C24.9247 21.9716 24.2704 21.7123 23.7222 21.2777C23.442 20.9975 23.1642 20.7197 22.8889 20.4444C21.8143 21.2098 20.7464 21.8764 19.6111 22.5555C18.0004 23.4381 16.2843 24.0307 14.4629 24.2592C12.2559 24.4874 10.2682 24.0615 8.42589 22.8703C8.55422 23.1583 8.67767 23.3312 8.87033 23.574C8.94441 23.7222 9.05552 23.8333 9.20367 23.9074C10.3761 24.852 11.7218 25.3644 13.2407 25.4444C14.7716 25.4507 16.3025 25.4507 17.8333 25.4444C18.4709 25.453 19.0882 25.5641 19.6851 25.7777C20.2947 26.0602 20.7515 26.4985 21.0555 27.0926C21.0861 27.2031 21.1355 27.3019 21.2037 27.3889C21.4731 28.2181 21.5842 29.0699 21.537 29.9444C21.4672 30.7069 21.3376 31.46 21.1481 32.2037C20.8222 33.3234 20.4703 34.4345 20.0926 35.537C19.8557 36.2414 19.6149 36.9452 19.3703 37.6481C19.1029 38.2448 18.8251 38.8374 18.537 39.4259C18.232 39.9533 17.911 40.4718 17.574 40.9814C17.4506 40.9814 17.3271 40.9814 17.2037 40.9814C17.9419 39.3066 18.5926 37.5926 19.1111 35.8333C19.6641 34.0781 20.0591 32.288 20.2963 30.4629C20.3424 29.8157 20.3054 29.1738 20.1851 28.537C20.0568 27.8291 19.6679 27.3291 19.0185 27.037C18.4119 26.88 17.7946 26.806 17.1666 26.8148C15.8703 26.8024 14.574 26.7901 13.2777 26.7777C11.9659 26.682 10.7313 26.324 9.57404 25.7037C8.69685 25.2339 7.99933 24.5734 7.48144 23.7222C6.83359 22.2807 6.9447 20.898 7.81478 19.574C8.03815 19.3188 8.22948 19.041 8.38885 18.7407C8.49541 18.7053 8.59418 18.6559 8.68515 18.5926C9.44015 17.9373 10.3043 17.4866 11.2777 17.2407C11.1885 16.8622 11.1206 16.4795 11.074 16.0926C10.9777 15.1134 11.2123 14.2245 11.7777 13.4259C12.6732 12.3331 13.8275 11.8208 15.2407 11.8889C15.1443 11.9033 15.0578 11.9342 14.9814 11.9814C13.5375 12.357 12.519 13.2336 11.9259 14.6111C11.6291 15.4077 11.5921 16.1547 11.8518 16.9629C12.5273 16.8001 13.1384 16.6397 13.7963 16.4074C13.2456 15.4797 13.4259 14.4629 14.2037 13.9259C14.9814 13.3889 15.5595 13.5479 16.2037 14C16.2407 14.0247 16.2592 13.9506 16.2963 13.9259C16.6344 13.5259 16.8937 13.2296 17.2592 12.8518C17.2821 12.8167 17.2944 12.7673 17.2592 12.7407C16.6611 12.3123 16.0871 12.0591 15.3518 11.9814C16.1802 11.9108 16.9457 12.1083 17.6481 12.574C19.1196 11.3881 20.7986 10.6782 22.6851 10.4444C26.0595 10.2321 29.0966 11.1334 31.7963 13.1481C32.9586 14.0765 33.7919 15.2431 34.2963 16.6481C35.0571 18.9048 35.1929 21.2011 34.7037 23.537C34.3293 24.8165 33.7491 25.9894 32.9629 27.0555C32.074 28.1913 31.1851 29.3271 30.2963 30.4629C29.9229 30.9748 29.5773 31.5057 29.2592 32.0555C28.0485 34.5146 27.0485 37.0578 26.2592 39.6852C26.155 40.1129 26.0748 40.5448 26.0185 40.9814Z" fill="#050607"/>
<path fill-rule="evenodd" clip-rule="evenodd" d="M25.8333 40.9814C24.9567 40.9814 24.0802 40.9814 23.2037 40.9814C23.2807 38.7337 23.3795 36.4867 23.5 34.2407C23.5115 33.756 23.4807 33.2745 23.4074 32.7963C23.3512 32.4796 23.1969 32.2265 22.9444 32.037C22.7592 31.9136 22.574 31.9136 22.3889 32.037C22.2729 32.1158 22.168 32.2084 22.074 32.3148C21.8498 32.6008 21.6399 32.8971 21.4444 33.2037C20.9805 33.9838 20.5175 34.7616 20.0555 35.537C20.4333 34.4345 20.7852 33.3234 21.1111 32.2037C21.3006 31.46 21.4302 30.7069 21.5 29.9444C21.537 29.2037 21.5 28.8333 21.4074 28.2592C21.3761 28.1211 21.2963 27.6296 21.1666 27.3889C21.037 27.1481 20.875 26.9259 20.7777 26.7777C20.3889 26.1851 20.2577 26.0602 19.6481 25.7777C19.0512 25.5641 18.4339 25.453 17.7963 25.4444C16.2654 25.4507 14.7346 25.4507 13.2037 25.4444C11.6848 25.3644 10.3391 24.852 9.16663 23.9074C9.00574 23.7777 8.89206 23.6481 8.8333 23.574C8.64063 23.3312 8.48015 23.0657 8.35182 22.7777C10.1941 23.9689 12.2188 24.4504 14.4259 24.2222C16.2473 23.9937 17.9633 23.4381 19.574 22.5555C20.7094 21.8764 21.8143 21.1542 22.8889 20.3889C23.1642 20.6642 23.442 20.942 23.7222 21.2222C24.2704 21.6567 24.8877 21.953 25.574 22.1111C28.0377 22.4107 29.7784 21.4416 30.7963 19.2037C30.8678 19.0668 30.9074 18.9074 30.9444 18.7592C30.9814 18.6111 31.0185 18.5 31.037 18.3518C31.0555 18.2037 31.0926 18.037 31.1111 17.7963C31.1296 17.5555 31.1296 17.4444 31.0926 17.2037C31.0555 16.9629 31.0185 16.7777 30.9629 16.5926C30.9074 16.4074 30.8333 16.1296 30.6852 15.8148C30.6278 15.663 30.4444 15.3401 30.2407 15.1296C29.1296 13.9814 28.4254 13.5275 26.8333 13.6481C26.6975 13.6481 26.5617 13.6481 26.4259 13.6481C26.7963 13.5274 26.7963 13.5 26.7963 13.5C26.7963 13.5 26.3366 13.4698 26.0002 13.5C25.5571 13.5398 25.1803 13.6323 24.7592 13.7777C23.0731 14.5075 22.1842 15.7914 22.0926 17.6296C22.0713 18.4955 22.2812 19.298 22.7222 20.037C21.4212 20.706 20.1249 21.385 18.8333 22.074C18.0023 22.4416 17.1504 22.7502 16.2777 23C14.3005 23.5399 12.3746 23.4041 10.5 22.5926C9.77404 22.4222 9.04563 22.2679 8.31478 22.1296C8.24552 21.9432 8.22082 21.7457 8.2407 21.537C8.38126 20.8985 8.8333 19.9074 9.05552 19.8148C9.27774 19.7222 9.57404 19.8333 9.7407 20.0926C9.90737 20.3518 10.0926 20.9074 10.1481 20.9074C10.2037 20.9074 10.4259 20.6666 10.4444 20.574C10.4926 20.3333 10.4629 20.074 10.2777 19.574C10.1832 19.3806 10.0474 19.22 9.87033 19.0926C10.388 18.7473 10.9435 18.4819 11.537 18.2963C12.5017 17.9953 13.4646 17.6866 14.4259 17.3703C15.0984 17.1361 15.6477 16.7349 16.074 16.1666C16.4261 15.6106 16.7965 15.0674 17.1852 14.537C18.4093 13.0263 19.971 12.0449 21.8703 11.5926C24.6294 11.1286 27.2344 11.573 29.6852 12.9259C30.5967 13.3975 31.4054 14.0086 32.1111 14.7592C33.1297 16.0108 33.747 17.4429 33.9629 19.0555C34.3037 20.8971 34.1679 22.6996 33.5555 24.4629C33.131 25.4114 32.6124 26.3003 32 27.1296C31.1567 28.1951 30.3419 29.2815 29.5555 30.3889C29.0055 31.2169 28.5117 32.0811 28.074 32.9814C27.2095 35.0441 26.5305 37.1676 26.037 39.3518C25.9265 39.8903 25.8586 40.4333 25.8333 40.9814Z" fill="#01DD79"/>
<path fill-rule="evenodd" clip-rule="evenodd" d="M14.9444 11.9814C15.0679 11.9814 15.1913 11.9814 15.3148 11.9814C16.05 12.0591 16.7167 12.3123 17.3148 12.7407C17.35 12.7673 17.3561 12.7981 17.3333 12.8333C16.9677 13.2111 16.6159 13.6 16.2777 14C16.2407 14.0247 16.2037 14.0247 16.1666 14C15.5224 13.5479 14.9074 13.4814 14.2037 13.9629C13.5 14.4444 13.2826 15.4982 13.8333 16.4259C13.1755 16.6582 12.5088 16.8557 11.8333 17.0185C11.5736 16.2102 11.5921 15.4077 11.8889 14.6111C12.482 13.2336 13.5005 12.357 14.9444 11.9814Z" fill="#FCFDFD"/>
<path fill-rule="evenodd" clip-rule="evenodd" d="M23.9814 12.0185C24.0687 12.0124 24.1551 12.0186 24.2407 12.037C23.0714 12.6527 21.8738 13.1959 20.6481 13.6666C19.7943 14.1247 19.0474 14.7235 18.4074 15.4629C17.961 16.0453 17.4733 16.5947 16.9444 17.1111C16.7048 17.3009 16.4455 17.4614 16.1666 17.5926C14.5208 18.1378 12.8541 18.607 11.1666 19C11.5909 18.7509 12.0353 18.541 12.5 18.3703C13.7345 17.9259 14.9691 17.4814 16.2037 17.037C16.4676 16.8348 16.7207 16.6188 16.9629 16.3889C17.4039 15.8648 17.836 15.3339 18.2592 14.7963C19.8117 13.1404 21.7191 12.2145 23.9814 12.0185Z" fill="#F6FAFA"/>
<path fill-rule="evenodd" clip-rule="evenodd" d="M26.4259 13.6481C26.5617 13.6481 26.6975 13.6481 26.8333 13.6481C28.371 13.8759 29.4883 14.6783 30.1852 16.0555C30.7697 17.9066 30.3191 19.456 28.8333 20.7037C27.5391 21.5895 26.1811 21.7006 24.7592 21.037C23.1188 19.9274 22.6065 18.4274 23.2222 16.537C23.8636 15.0992 24.9315 14.1362 26.4259 13.6481Z" fill="#FDFDFD"/>
<path fill-rule="evenodd" clip-rule="evenodd" d="M30.8333 15.574C31.2628 15.7496 31.627 16.0212 31.9259 16.3889C32.5067 17.156 32.8647 18.0202 33 18.9814C33.2497 20.4192 33.1016 21.8143 32.5555 23.1666C32.0606 24.2929 31.4433 25.3422 30.7037 26.3148C29.8518 27.4382 29 28.5617 28.1481 29.6851C27.3094 30.8561 26.6552 32.1278 26.1852 33.5C26.0042 34.1292 25.8992 34.7711 25.8703 35.4259C25.7044 35.2535 25.5748 35.056 25.4814 34.8333C25.0003 33.4913 25.0743 32.1826 25.7037 30.9074C26.0311 30.4006 26.3768 29.9068 26.7407 29.4259C27.665 28.2916 28.6033 27.1681 29.5555 26.0555C30.2867 25.1495 30.9163 24.1742 31.4444 23.1296C32.3487 21.1511 32.4352 19.1387 31.7037 17.0926C31.4757 16.5566 31.2103 16.0133 30.8333 15.574Z" fill="#00B161"/>
<path fill-rule="evenodd" clip-rule="evenodd" d="M13.9074 21.3148C13.9814 21.4814 14.037 21.7777 14.0185 21.8333C14 21.8889 13.9283 21.8801 13.8703 21.8518C13.721 21.69 13.5925 21.5555 13.3888 21.4259C13.1851 21.2963 13.0555 21.2407 12.7407 21.2407C12.4259 21.2407 11.9836 21.4339 11.6111 21.5555C11.4876 21.5844 11.3333 21.6296 11.2407 21.5926C11.1481 21.5555 11.1242 21.4259 11.1111 21.3148C11.098 21.2037 11.074 20.8333 11.1111 20.6851C11.1481 20.537 11.2963 20.5039 11.4259 20.4814C11.5555 20.459 12.3148 20.3889 12.8333 20.4629C13.3518 20.537 13.8333 21.1481 13.9074 21.3148Z" fill="#070909"/>
<path fill-rule="evenodd" clip-rule="evenodd" d="M23.2037 40.9814C21.4629 40.9814 19.7222 40.9814 17.9814 40.9814C18.1321 40.4555 18.305 39.937 18.5 39.4259C18.788 38.8374 19.0658 38.2448 19.3333 37.6481C19.5779 36.9452 19.8186 36.2414 20.0555 35.537C20.5175 34.7616 20.9805 33.9838 21.4444 33.2037C21.6399 32.8971 21.8498 32.6008 22.074 32.3148C22.168 32.2084 22.2729 32.1158 22.3889 32.037C22.574 31.9136 22.7592 31.9136 22.9444 32.037C23.1969 32.2265 23.3512 32.4796 23.4074 32.7963C23.4807 33.2745 23.5115 33.756 23.5 34.2407C23.3795 36.4867 23.2807 38.7337 23.2037 40.9814Z" fill="#FEFEFE"/>
<path fill-rule="evenodd" clip-rule="evenodd" d="M18.5 39.4259C18.305 39.937 18.1321 40.4555 17.9814 40.9814C17.8333 40.9814 17.6851 40.9814 17.537 40.9814C17.8739 40.4718 18.1949 39.9533 18.5 39.4259Z" fill="#11D879"/>
<path d="M28.5555 17.3858C28.5555 18.417 27.7264 19.253 26.7037 19.253C25.6809 19.253 24.8518 18.417 24.8518 17.3858C24.8518 16.3545 25.6809 15.5185 26.7037 15.5185C27.7264 15.5185 28.5555 16.3545 28.5555 17.3858Z" fill="#050607"/>
</svg>
